<svg width="77" height="99" viewBox="0 0 77 99" fill="none" xmlns="http://www.w3.org/2000/svg">
<path d="M0.333333 96C0.333333 94.5272 1.52724 93.3333 3 93.3333C4.47276 93.3333 5.66667 94.5272 5.66667 96C5.66667 97.4728 4.47276 98.6667 3 98.6667C1.52724 98.6667 0.333333 97.4728 0.333333 96ZM71.3333 3C71.3333 1.52724 72.5272 0.333336 74 0.333336C75.4728 0.333336 76.6667 1.52724 76.6667 3C76.6667 4.47276 75.4728 5.66666 74 5.66666C72.5272 5.66666 71.3333 4.47276 71.3333 3ZM2.5 96V11H3.5V96H2.5ZM11 2.5H74V3.5H11V2.5ZM2.5 11C2.5 6.30557 6.30558 2.5 11 2.5V3.5C6.85786 3.5 3.5 6.85786 3.5 11H2.5Z" fill="#837CFF"/>
</svg>
