<svg width="154" height="20" viewBox="0 0 154 20" fill="none" xmlns="http://www.w3.org/2000/svg">
<path d="M78.1115 2.24238C78.1115 3.40935 79.1193 4.35536 80.3626 4.35536H83.4958C85.4196 4.35536 86.5224 6.41198 85.3761 7.8621L78.541 16.5091C78.2429 16.886 78.082 17.343 78.082 17.8123C78.082 19.0206 79.1255 20 80.4128 20H92.9283C94.1721 20 95.1804 19.0536 95.1804 17.8862C95.1804 16.7188 94.1721 15.7724 92.9283 15.7724H89.7962C87.8723 15.7724 86.7695 13.7155 87.9158 12.2654L94.7512 3.61821C95.0491 3.24153 95.2099 2.78493 95.2099 2.31581C95.2099 1.10824 94.167 0.129395 92.8806 0.129395H80.3626C79.1193 0.129395 78.1115 1.07541 78.1115 2.24238Z" fill="white"/>
<path d="M138.725 17.8024C138.725 19.016 139.787 20 141.096 20H151.69C152.95 20 153.971 19.0536 153.971 17.8862C153.971 16.7188 152.95 15.7724 151.69 15.7724H146.278C145.208 15.7724 144.34 14.9678 144.34 13.9754C144.34 12.9829 145.208 12.1784 146.278 12.1784H150.923C152.183 12.1784 153.204 11.2321 153.204 10.0649C153.204 8.89732 152.183 7.95109 150.923 7.95109H146.279C145.208 7.95109 144.34 7.14611 144.34 6.15323C144.34 5.16013 145.208 4.35536 146.279 4.35536H151.721C152.98 4.35536 154.001 3.40935 154.001 2.24238C154.001 1.07541 152.98 0.129395 151.721 0.129395H141.096C139.787 0.129395 138.725 1.11342 138.725 2.32705V17.8024Z" fill="white"/>
<path d="M130.991 10.6991C130.991 10.7583 130.94 10.806 130.877 10.806C130.838 10.806 130.803 10.7885 130.781 10.7593L123.74 1.09183C123.302 0.489874 122.572 0.129395 121.792 0.129395H120.639C119.338 0.129395 118.283 1.11342 118.283 2.32705V17.8024C118.283 19.016 119.338 20 120.639 20H121.505C122.806 20 123.86 19.016 123.86 17.8024V9.35737C123.86 9.30791 123.903 9.26795 123.956 9.26795C123.988 9.26795 124.017 9.28242 124.035 9.30683L131.2 19.046C131.639 19.6432 132.365 20 133.142 20H134.213C135.514 20 136.568 19.016 136.568 17.8024V2.32705C136.568 1.11342 135.514 0.129395 134.213 0.129395H133.346C132.046 0.129395 130.991 1.11342 130.991 2.32726V10.6991Z" fill="white"/>
<path fill-rule="evenodd" clip-rule="evenodd" d="M115.816 6.49189C117.884 11.5851 115.154 17.2841 109.719 19.2211C108.683 19.5908 107.674 18.8 107.659 17.7604L107.631 15.7864C107.618 14.8641 108.259 14.0692 109.021 13.4852C110.678 12.2146 111.364 10.0477 110.561 8.06894C109.556 5.59369 106.601 4.35035 103.959 5.29165C101.318 6.23317 99.9918 9.00262 100.997 11.4779C101.343 12.3315 101.922 13.0389 102.64 13.5605C103.416 14.1241 104.076 14.9026 104.089 15.8226L104.106 17.0554C104.126 18.4363 102.779 19.5 101.448 18.9061C99.0871 17.8525 97.1387 15.9778 96.1354 13.5062C94.0678 8.41325 96.7974 2.714 102.232 0.77722C107.667 -1.15977 113.749 1.39868 115.816 6.49189Z" fill="white"/>
<path fill-rule="evenodd" clip-rule="evenodd" d="M106.454 12.9659C106.466 12.7719 106.612 12.6112 106.806 12.5451C108.008 12.1345 108.867 11.0481 108.867 9.77275C108.867 8.14465 107.468 6.8252 105.742 6.8252C104.016 6.8252 102.617 8.14465 102.617 9.77275C102.617 11.0481 103.476 12.1345 104.678 12.5451C104.872 12.6112 105.018 12.7719 105.03 12.9659L105.389 19.0372C105.399 19.2141 105.554 19.3523 105.742 19.3523C105.93 19.3523 106.085 19.2141 106.096 19.0372L106.454 12.9659Z" fill="white"/>
<path d="M131.009 8.44384C131.125 10.0639 129.736 9.52399 129.457 8.93823L128.852 9.27063L130.37 13.5001C130.991 12.0221 132.25 9.04018 132.322 8.93823C132.413 8.8108 130.878 6.61207 131.009 8.44384Z" fill="white"/>
<path d="M123.834 11.6841C123.718 10.0642 124.978 10.466 125.295 11.0349L125.878 10.6694L124.091 6.53223C123.566 8.0424 122.5 11.0891 122.435 11.1949C122.353 11.3271 123.965 13.5161 123.834 11.6841Z" fill="white"/>
<path d="M8.80774 19.9683C9.86817 19.9683 10.8033 19.3098 11.1092 18.3477L14.1754 8.70328C14.1902 8.65659 14.2356 8.62466 14.287 8.62466C14.3385 8.62466 14.3838 8.65659 14.3987 8.70328L17.4667 18.348C17.7727 19.31 18.7077 19.9683 19.7681 19.9683H21.4634C22.5301 19.9683 23.4692 19.3021 23.7697 18.3324L28.5055 3.04844C28.9575 1.58998 27.8034 0.129395 26.1993 0.129395H25.2165C24.091 0.129395 23.1164 0.869142 22.8707 1.90967L20.3667 12.5158C20.3555 12.5635 20.3108 12.5974 20.2592 12.5974C20.2091 12.5974 20.1653 12.5654 20.1525 12.5195L17.1824 1.82716C16.9045 0.826688 15.9498 0.129395 14.858 0.129395H13.7178C12.6252 0.129395 11.67 0.827715 11.3929 1.82919L8.44941 12.465C8.43683 12.5104 8.39354 12.542 8.344 12.542C8.29307 12.542 8.24889 12.5086 8.23772 12.4614L5.73493 1.90756C5.48843 0.868047 4.51424 0.129395 3.38982 0.129395H2.40512C0.800946 0.129395 -0.353032 1.58998 0.0988656 3.04844L4.83459 18.3324C5.13508 19.3021 6.07412 19.9683 7.14081 19.9683H8.80774Z" fill="white"/>
<path d="M51.3575 0.129395H50.6911C49.3808 0.129395 48.3184 1.14904 48.3184 2.40686V17.6908C48.3184 18.9486 49.3808 19.9683 50.6911 19.9683H51.3575C52.6677 19.9683 53.73 18.9486 53.73 17.6908V2.40686C53.73 1.14904 52.6677 0.129395 51.3575 0.129395Z" fill="white"/>
<path d="M30.955 19.9683C31.3639 19.9683 31.7244 19.7123 31.8429 19.3382L32.1638 18.3252C32.1652 18.3209 32.1621 18.3165 32.1574 18.316C32.1529 18.3155 32.1496 18.3111 32.151 18.3067L34.1341 12.1334C34.1344 12.1325 34.1336 12.1316 34.1327 12.1316C34.1318 12.1316 34.1311 12.1307 34.1313 12.1298L36.2218 5.55146C36.2364 5.50477 36.2815 5.47282 36.3324 5.47282C36.3834 5.47282 36.4284 5.50463 36.4433 5.55125L38.0749 10.6522C38.3101 11.3878 37.7349 12.1316 36.9303 12.1316C36.2692 12.1316 35.7334 12.6441 35.7334 13.2762V14.1046C35.7334 15.1943 36.6573 16.0776 37.7964 16.0776H38.0751C39.1045 16.0776 40.0134 16.7207 40.3142 17.6623L40.5362 18.3566C40.8422 19.3142 41.7664 19.9683 42.8136 19.9683H43.6158C45.2391 19.9683 46.3867 18.4492 45.8768 16.9755L40.5896 1.69154C40.2673 0.759048 39.3558 0.129395 38.3287 0.129395H34.3637C33.3378 0.129395 32.4271 0.757773 32.1038 1.68892L26.7951 16.9728C26.2831 18.4471 27.4307 19.9683 29.055 19.9683H30.955Z" fill="white"/>
<path d="M58.295 0.129395C57.0544 0.129395 56.0488 1.07384 56.0488 2.23888C56.0488 3.40395 57.0544 4.34839 58.295 4.34839H59.97C61.3095 4.34839 62.3951 5.36807 62.3951 6.62588V17.6908C62.3951 18.9486 63.4812 19.9683 64.8203 19.9683H65.4445C66.7841 19.9683 67.8697 18.9486 67.8697 17.6908V6.62588C67.8697 5.36807 68.9555 4.34839 70.2948 4.34839H71.9701C73.2107 4.34839 74.2165 3.40395 74.2165 2.23888C74.2165 1.07384 73.2107 0.129395 71.9701 0.129395H58.295Z" fill="white"/>
<path d="M9.18223 10.3542C8.71932 11.4342 7.90922 11.0023 7.79349 10.3542L7.21484 10.5701L7.79349 14.9978C8.71932 13.6659 10.5941 10.9805 10.6867 10.8941C10.8024 10.7861 9.8168 8.87369 9.18223 10.3542Z" fill="white"/>
<path d="M20.755 10.4623C20.0606 11.7582 19.4434 10.8225 19.2505 10.3545L18.6719 10.5704L19.2505 14.9981C20.1763 13.6662 22.0512 10.9809 22.1437 10.8945C22.2595 10.7865 21.5975 8.88993 20.755 10.4623Z" fill="white"/>
<path d="M13.2799 11.5997C14.1413 9.95755 15.0598 10.8214 15.3161 11.5056L15.8948 11.284L15.1257 4.81006C13.8952 6.75747 11.4034 10.6839 11.2804 10.8102C11.1265 10.9681 12.2032 13.6524 13.2799 11.5997Z" fill="white"/>
</svg>
