<svg width="133" height="81" viewBox="0 0 133 81" fill="none" xmlns="http://www.w3.org/2000/svg">
<path d="M0.333333 3C0.333333 4.47276 1.52724 5.66667 3 5.66667C4.47276 5.66667 5.66667 4.47276 5.66667 3C5.66667 1.52724 4.47276 0.333333 3 0.333333C1.52724 0.333333 0.333333 1.52724 0.333333 3ZM127.333 78C127.333 79.4728 128.527 80.6667 130 80.6667C131.473 80.6667 132.667 79.4728 132.667 78C132.667 76.5272 131.473 75.3333 130 75.3333C128.527 75.3333 127.333 76.5272 127.333 78ZM2.5 3V70H3.5V3H2.5ZM11 78.5H130V77.5H11V78.5ZM2.5 70C2.5 74.6944 6.30558 78.5 11 78.5V77.5C6.85787 77.5 3.5 74.1421 3.5 70H2.5Z" fill="#837CFF"/>
</svg>
