<svg width="362" height="16" viewBox="0 0 362 16" fill="none" xmlns="http://www.w3.org/2000/svg">
<path d="M361.366 8.36587C361.568 8.16379 361.568 7.83615 361.366 7.63406L358.073 4.34092C357.871 4.13884 357.543 4.13884 357.341 4.34092C357.139 4.54301 357.139 4.87065 357.341 5.07273L360.268 7.99997L357.341 10.9272C357.139 11.1293 357.139 11.4569 357.341 11.659C357.543 11.8611 357.871 11.8611 358.073 11.659L361.366 8.36587ZM4.52384e-08 8.51747L0.960106 8.51747L0.960106 7.48253L-4.52384e-08 7.48253L4.52384e-08 8.51747ZM2.88032 8.51747L4.80053 8.51747L4.80053 7.48253L2.88032 7.48253L2.88032 8.51747ZM6.72074 8.51747L8.64096 8.51747L8.64096 7.48253L6.72074 7.48253L6.72074 8.51747ZM10.5612 8.51747L12.4814 8.51747L12.4814 7.48253L10.5612 7.48253L10.5612 8.51747ZM14.4016 8.51747L16.3218 8.51747L16.3218 7.48253L14.4016 7.48253L14.4016 8.51747ZM18.242 8.51747L20.1622 8.51747L20.1622 7.48253L18.242 7.48253L18.242 8.51747ZM22.0824 8.51747L24.0027 8.51747L24.0027 7.48253L22.0824 7.48253L22.0824 8.51747ZM25.9229 8.51747L27.8431 8.51747L27.8431 7.48253L25.9229 7.48253L25.9229 8.51747ZM29.7633 8.51746L31.6835 8.51746L31.6835 7.48253L29.7633 7.48253L29.7633 8.51746ZM33.6037 8.51746L35.5239 8.51746L35.5239 7.48253L33.6037 7.48253L33.6037 8.51746ZM37.4441 8.51746L39.3643 8.51746L39.3643 7.48253L37.4441 7.48253L37.4441 8.51746ZM41.2846 8.51746L43.2048 8.51746L43.2048 7.48253L41.2846 7.48253L41.2846 8.51746ZM45.125 8.51746L47.0452 8.51746L47.0452 7.48253L45.125 7.48253L45.125 8.51746ZM48.9654 8.51746L50.8856 8.51746L50.8856 7.48253L48.9654 7.48253L48.9654 8.51746ZM52.8058 8.51746L54.726 8.51746L54.726 7.48253L52.8058 7.48253L52.8058 8.51746ZM56.6463 8.51746L58.5665 8.51746L58.5665 7.48253L56.6463 7.48253L56.6463 8.51746ZM60.4867 8.51746L62.4069 8.51746L62.4069 7.48253L60.4867 7.48253L60.4867 8.51746ZM64.3271 8.51746L66.2473 8.51746L66.2473 7.48253L64.3271 7.48253L64.3271 8.51746ZM68.1675 8.51746L70.0877 8.51746L70.0877 7.48253L68.1675 7.48253L68.1675 8.51746ZM72.0079 8.51746L73.9282 8.51746L73.9282 7.48253L72.0079 7.48253L72.0079 8.51746ZM75.8484 8.51746L77.7686 8.51746L77.7686 7.48253L75.8484 7.48253L75.8484 8.51746ZM79.6888 8.51746L81.609 8.51746L81.609 7.48253L79.6888 7.48253L79.6888 8.51746ZM83.5292 8.51746L85.4494 8.51746L85.4494 7.48253L83.5292 7.48253L83.5292 8.51746ZM87.3696 8.51746L89.2899 8.51746L89.2899 7.48252L87.3696 7.48252L87.3696 8.51746ZM91.2101 8.51746L93.1303 8.51746L93.1303 7.48252L91.2101 7.48252L91.2101 8.51746ZM95.0505 8.51746L96.9707 8.51746L96.9707 7.48252L95.0505 7.48252L95.0505 8.51746ZM98.8909 8.51746L100.811 8.51746L100.811 7.48252L98.8909 7.48252L98.8909 8.51746ZM102.731 8.51746L104.652 8.51746L104.652 7.48252L102.731 7.48252L102.731 8.51746ZM106.572 8.51746L108.492 8.51746L108.492 7.48252L106.572 7.48252L106.572 8.51746ZM110.412 8.51746L112.332 8.51746L112.332 7.48252L110.412 7.48252L110.412 8.51746ZM114.253 8.51746L116.173 8.51746L116.173 7.48252L114.253 7.48252L114.253 8.51746ZM118.093 8.51746L120.013 8.51746L120.013 7.48252L118.093 7.48252L118.093 8.51746ZM121.933 8.51746L123.854 8.51746L123.854 7.48252L121.933 7.48252L121.933 8.51746ZM125.774 8.51746L127.694 8.51746L127.694 7.48252L125.774 7.48252L125.774 8.51746ZM129.614 8.51746L131.535 8.51746L131.535 7.48252L129.614 7.48252L129.614 8.51746ZM133.455 8.51746L135.375 8.51746L135.375 7.48252L133.455 7.48252L133.455 8.51746ZM137.295 8.51746L139.215 8.51746L139.215 7.48252L137.295 7.48252L137.295 8.51746ZM141.136 8.51746L143.056 8.51745L143.056 7.48252L141.136 7.48252L141.136 8.51746ZM144.976 8.51745L146.896 8.51745L146.896 7.48252L144.976 7.48252L144.976 8.51745ZM148.816 8.51745L150.737 8.51745L150.737 7.48252L148.816 7.48252L148.816 8.51745ZM152.657 8.51745L154.577 8.51745L154.577 7.48252L152.657 7.48252L152.657 8.51745ZM156.497 8.51745L158.417 8.51745L158.417 7.48252L156.497 7.48252L156.497 8.51745ZM160.338 8.51745L162.258 8.51745L162.258 7.48252L160.338 7.48252L160.338 8.51745ZM164.178 8.51745L166.098 8.51745L166.098 7.48252L164.178 7.48252L164.178 8.51745ZM168.019 8.51745L169.939 8.51745L169.939 7.48252L168.019 7.48252L168.019 8.51745ZM171.859 8.51745L173.779 8.51745L173.779 7.48252L171.859 7.48252L171.859 8.51745ZM175.699 8.51745L177.62 8.51745L177.62 7.48252L175.699 7.48252L175.699 8.51745ZM179.54 8.51745L181.46 8.51745L181.46 7.48252L179.54 7.48252L179.54 8.51745ZM183.38 8.51745L185.3 8.51745L185.3 7.48252L183.38 7.48252L183.38 8.51745ZM187.221 8.51745L189.141 8.51745L189.141 7.48252L187.221 7.48252L187.221 8.51745ZM191.061 8.51745L192.981 8.51745L192.981 7.48252L191.061 7.48252L191.061 8.51745ZM194.902 8.51745L196.822 8.51745L196.822 7.48252L194.902 7.48252L194.902 8.51745ZM198.742 8.51745L200.662 8.51745L200.662 7.48252L198.742 7.48252L198.742 8.51745ZM202.582 8.51745L204.503 8.51745L204.503 7.48251L202.582 7.48251L202.582 8.51745ZM206.423 8.51745L208.343 8.51745L208.343 7.48251L206.423 7.48251L206.423 8.51745ZM210.263 8.51745L212.183 8.51745L212.183 7.48251L210.263 7.48251L210.263 8.51745ZM214.104 8.51745L216.024 8.51745L216.024 7.48251L214.104 7.48251L214.104 8.51745ZM217.944 8.51745L219.864 8.51745L219.864 7.48251L217.944 7.48251L217.944 8.51745ZM221.784 8.51745L223.705 8.51745L223.705 7.48251L221.784 7.48251L221.784 8.51745ZM225.625 8.51745L227.545 8.51745L227.545 7.48251L225.625 7.48251L225.625 8.51745ZM229.465 8.51745L231.386 8.51745L231.386 7.48251L229.465 7.48251L229.465 8.51745ZM233.306 8.51745L235.226 8.51745L235.226 7.48251L233.306 7.48251L233.306 8.51745ZM237.146 8.51745L239.066 8.51745L239.066 7.48251L237.146 7.48251L237.146 8.51745ZM240.987 8.51745L242.907 8.51745L242.907 7.48251L240.987 7.48251L240.987 8.51745ZM244.827 8.51745L246.747 8.51745L246.747 7.48251L244.827 7.48251L244.827 8.51745ZM248.667 8.51745L250.588 8.51745L250.588 7.48251L248.667 7.48251L248.667 8.51745ZM252.508 8.51745L254.428 8.51745L254.428 7.48251L252.508 7.48251L252.508 8.51745ZM256.348 8.51745L258.269 8.51744L258.269 7.48251L256.348 7.48251L256.348 8.51745ZM260.189 8.51744L262.109 8.51744L262.109 7.48251L260.189 7.48251L260.189 8.51744ZM264.029 8.51744L265.949 8.51744L265.949 7.48251L264.029 7.48251L264.029 8.51744ZM267.87 8.51744L269.79 8.51744L269.79 7.48251L267.87 7.48251L267.87 8.51744ZM271.71 8.51744L273.63 8.51744L273.63 7.48251L271.71 7.48251L271.71 8.51744ZM275.551 8.51744L277.471 8.51744L277.471 7.48251L275.551 7.48251L275.551 8.51744ZM279.391 8.51744L281.311 8.51744L281.311 7.48251L279.391 7.48251L279.391 8.51744ZM283.231 8.51744L285.152 8.51744L285.152 7.48251L283.231 7.48251L283.231 8.51744ZM287.072 8.51744L288.992 8.51744L288.992 7.48251L287.072 7.48251L287.072 8.51744ZM290.912 8.51744L292.833 8.51744L292.833 7.48251L290.912 7.48251L290.912 8.51744ZM294.753 8.51744L296.673 8.51744L296.673 7.48251L294.753 7.48251L294.753 8.51744ZM298.593 8.51744L300.514 8.51744L300.514 7.48251L298.593 7.48251L298.593 8.51744ZM302.434 8.51744L304.354 8.51744L304.354 7.48251L302.434 7.48251L302.434 8.51744ZM306.274 8.51744L308.194 8.51744L308.194 7.48251L306.274 7.48251L306.274 8.51744ZM310.115 8.51744L312.035 8.51744L312.035 7.48251L310.115 7.48251L310.115 8.51744ZM313.955 8.51744L315.875 8.51744L315.875 7.4825L313.955 7.48251L313.955 8.51744ZM317.796 8.51744L319.716 8.51744L319.716 7.4825L317.796 7.4825L317.796 8.51744ZM321.636 8.51744L323.556 8.51744L323.556 7.4825L321.636 7.4825L321.636 8.51744ZM325.476 8.51744L327.397 8.51744L327.397 7.4825L325.476 7.4825L325.476 8.51744ZM329.317 8.51744L331.237 8.51744L331.237 7.4825L329.317 7.4825L329.317 8.51744ZM333.157 8.51744L335.078 8.51744L335.078 7.4825L333.157 7.4825L333.157 8.51744ZM336.998 8.51744L338.918 8.51744L338.918 7.4825L336.998 7.4825L336.998 8.51744ZM340.838 8.51744L342.759 8.51744L342.759 7.4825L340.838 7.4825L340.838 8.51744ZM344.679 8.51744L346.599 8.51744L346.599 7.4825L344.679 7.4825L344.679 8.51744ZM348.519 8.51744L350.439 8.51744L350.439 7.4825L348.519 7.4825L348.519 8.51744ZM352.36 8.51744L354.28 8.51744L354.28 7.4825L352.36 7.4825L352.36 8.51744ZM356.2 8.51744L358.12 8.51744L358.12 7.4825L356.2 7.4825L356.2 8.51744ZM360.041 8.51744L361 8.51744L361 7.4825L360.041 7.4825L360.041 8.51744Z" fill="#ACA7FF"/>
<rect opacity="0.3" x="71" width="16" height="16" rx="8" fill="#7852FF"/>
<rect x="75.5723" y="4.57129" width="6.85714" height="6.85714" rx="3.42857" fill="#ACA7FF"/>
<rect opacity="0.3" x="74.4277" y="3.42871" width="9.14286" height="9.14286" rx="4.57143" fill="#7852FF"/>
<rect opacity="0.3" x="213" width="16" height="16" rx="8" fill="#7852FF"/>
<rect x="217.572" y="4.57129" width="6.85714" height="6.85714" rx="3.42857" fill="#ACA7FF"/>
<rect opacity="0.3" x="216.428" y="3.42871" width="9.14286" height="9.14286" rx="4.57143" fill="#7852FF"/>
</svg>
