<svg width="96" height="16" viewBox="0 0 96 16" fill="none" xmlns="http://www.w3.org/2000/svg">
<path d="M5.24017 8C5.24017 9.52421 6.47579 10.7598 8 10.7598C9.52421 10.7598 10.7598 9.52421 10.7598 8C10.7598 6.47579 9.52421 5.24017 8 5.24017C6.47579 5.24017 5.24017 6.47579 5.24017 8ZM8 8.51747L8.95652 8.51747L8.95652 7.48253L8 7.48253L8 8.51747ZM10.8696 8.51747L12.7826 8.51747L12.7826 7.48253L10.8696 7.48253L10.8696 8.51747ZM14.6957 8.51747L16.6087 8.51747L16.6087 7.48253L14.6957 7.48253L14.6957 8.51747ZM18.5217 8.51747L20.4348 8.51747L20.4348 7.48253L18.5217 7.48253L18.5217 8.51747ZM22.3478 8.51747L24.2609 8.51747L24.2609 7.48253L22.3478 7.48253L22.3478 8.51747ZM26.1739 8.51747L28.087 8.51747L28.087 7.48253L26.1739 7.48253L26.1739 8.51747ZM30 8.51747L31.913 8.51747L31.913 7.48253L30 7.48253L30 8.51747ZM33.8261 8.51747L35.7391 8.51747L35.7391 7.48253L33.8261 7.48253L33.8261 8.51747ZM37.6522 8.51747L39.5652 8.51747L39.5652 7.48254L37.6522 7.48254L37.6522 8.51747ZM41.4783 8.51747L43.3913 8.51747L43.3913 7.48254L41.4783 7.48254L41.4783 8.51747ZM45.3044 8.51747L47.2174 8.51747L47.2174 7.48254L45.3044 7.48254L45.3044 8.51747ZM49.1304 8.51747L51.0435 8.51747L51.0435 7.48254L49.1304 7.48254L49.1304 8.51747ZM52.9565 8.51747L54.8696 8.51747L54.8696 7.48254L52.9565 7.48254L52.9565 8.51747ZM56.7826 8.51747L58.6957 8.51747L58.6957 7.48254L56.7826 7.48254L56.7826 8.51747ZM60.6087 8.51747L62.5218 8.51747L62.5218 7.48254L60.6087 7.48254L60.6087 8.51747ZM64.4348 8.51747L66.3478 8.51747L66.3478 7.48254L64.4348 7.48254L64.4348 8.51747ZM68.2609 8.51747L70.1739 8.51747L70.1739 7.48254L68.2609 7.48254L68.2609 8.51747ZM72.087 8.51747L74 8.51747L74 7.48254L72.087 7.48254L72.087 8.51747ZM75.913 8.51747L77.8261 8.51747L77.8261 7.48254L75.913 7.48254L75.913 8.51747ZM79.7391 8.51747L81.6522 8.51747L81.6522 7.48254L79.7391 7.48254L79.7391 8.51747ZM83.5652 8.51747L85.4782 8.51747L85.4782 7.48254L83.5652 7.48254L83.5652 8.51747ZM87.3913 8.51747L89.3043 8.51747L89.3043 7.48254L87.3913 7.48254L87.3913 8.51747ZM91.2174 8.51747L93.1304 8.51747L93.1304 7.48254L91.2174 7.48254L91.2174 8.51747ZM95.0434 8.51748L96 8.51748L96 7.48254L95.0434 7.48254L95.0434 8.51748Z" fill="#ACA7FF"/>
<rect opacity="0.3" width="16" height="16" rx="8" fill="#7852FF"/>
<rect x="4.57227" y="4.57129" width="6.85714" height="6.85714" rx="3.42857" fill="#ACA7FF"/>
<rect opacity="0.3" x="3.42773" y="3.42871" width="9.14286" height="9.14286" rx="4.57143" fill="#7852FF"/>
</svg>
